<svg width="100" height="100" viewBox="0 0 100 100" fill="none" xmlns="http://www.w3.org/2000/svg">
<path fill-rule="evenodd" clip-rule="evenodd" d="M35.431 30.2301L20 45.8L35.431 61.3698C37.0566 63.0099 39.6922 63.0099 41.3178 61.3698C42.9434 59.7297 42.9434 57.0704 41.3178 55.4301L35.936 50H65.431C68.8793 50 71.6749 52.8206 71.6749 56.3C71.6749 59.7793 68.8793 62.6 65.431 62.6H59.1872C56.8883 62.6 55.0247 64.4803 55.0247 66.8C55.0247 69.1197 56.8883 71 59.1872 71H65.431C73.4773 71 80 64.4186 80 56.3C80 48.1814 73.4773 41.6 65.431 41.6H35.936L41.3178 36.1699C42.9434 34.5296 42.9434 31.8704 41.3178 30.2301C39.6922 28.59 37.0566 28.59 35.431 30.2301Z" fill="#2563EB"/>
</svg>
